<svg width="220" height="124" viewBox="0 0 220 124" fill="none" xmlns="http://www.w3.org/2000/svg">
<path d="M0 91.3611V115.771H5.10749V91.3611H0ZM3.10735 95.5804H8.07197C9.42921 95.5804 10.5007 95.8826 11.2865 96.487C12.0722 97.0682 12.4651 97.9516 12.4651 99.1372C12.4651 100.3 12.0722 101.183 11.2865 101.787C10.5007 102.392 9.42921 102.694 8.07197 102.694H3.10735V106.913H8.07197C10.0483 106.913 11.727 106.6 13.108 105.972C14.5129 105.344 15.5844 104.449 16.3225 103.287C17.0607 102.101 17.4297 100.718 17.4297 99.1372C17.4297 97.5332 17.0607 96.15 16.3225 94.9876C15.5844 93.8253 14.5129 92.9302 13.108 92.3026C11.727 91.6749 10.0483 91.3611 8.07197 91.3611H3.10735V95.5804Z" fill="#32B768"/>
<path d="M20.9526 88.5714V115.771H25.5958V88.5714H20.9526Z" fill="#32B768"/>
<path d="M33.4467 110.784C33.4467 110.319 33.5539 109.935 33.7682 109.633C33.9825 109.308 34.3158 109.064 34.7682 108.901C35.2207 108.715 35.804 108.622 36.5184 108.622C37.3994 108.622 38.2328 108.738 39.0185 108.971C39.8281 109.203 40.5543 109.552 41.1973 110.017V107.925C40.9591 107.646 40.5662 107.355 40.0186 107.053C39.4709 106.751 38.7923 106.495 37.9827 106.286C37.197 106.076 36.2803 105.972 35.2326 105.972C33.1848 105.972 31.6014 106.425 30.4822 107.332C29.3631 108.238 28.8036 109.471 28.8036 111.028C28.8036 112.121 29.0655 113.051 29.5893 113.818C30.137 114.562 30.8513 115.131 31.7323 115.526C32.6133 115.922 33.5658 116.119 34.5897 116.119C35.5897 116.119 36.5422 115.945 37.447 115.596C38.3756 115.247 39.1257 114.724 39.6971 114.027C40.2924 113.33 40.5901 112.469 40.5901 111.447L40.0186 109.354C40.0186 110.121 39.84 110.784 39.4828 111.342C39.1257 111.877 38.6614 112.295 38.0899 112.597C37.5184 112.876 36.8755 113.016 36.1612 113.016C35.6612 113.016 35.1968 112.934 34.7682 112.772C34.3635 112.586 34.042 112.33 33.8039 112.004C33.5658 111.656 33.4467 111.249 33.4467 110.784ZM31.6609 104.263C31.899 104.1 32.2681 103.903 32.7681 103.67C33.2681 103.438 33.8634 103.24 34.5539 103.078C35.2445 102.915 35.9707 102.834 36.7327 102.834C37.2327 102.834 37.6851 102.88 38.0899 102.973C38.4947 103.066 38.84 103.217 39.1257 103.426C39.4352 103.636 39.6614 103.903 39.8043 104.228C39.9472 104.531 40.0186 104.902 40.0186 105.344V115.771H44.4832V104.403C44.4832 103.31 44.1736 102.392 43.5546 101.648C42.9355 100.881 42.0783 100.3 40.9829 99.9044C39.8876 99.5092 38.6376 99.3116 37.2327 99.3116C35.7088 99.3116 34.3277 99.5208 33.0896 99.9392C31.8514 100.334 30.8037 100.753 29.9465 101.195L31.6609 104.263Z" fill="#32B768"/>
<path d="M59.3943 106.007V115.771H64.1804V105.519C64.1804 103.589 63.7042 102.09 62.7517 101.02C61.7993 99.9276 60.3468 99.3813 58.3943 99.3813C57.2275 99.3813 56.2275 99.6254 55.3941 100.114C54.5845 100.579 53.9297 101.264 53.4297 102.171V99.73H48.7865V115.771H53.4297V106.007C53.4297 105.333 53.5606 104.751 53.8225 104.263C54.0845 103.775 54.4654 103.403 54.9655 103.147C55.4655 102.868 56.037 102.729 56.6799 102.729C57.6323 102.729 58.3228 103.008 58.7514 103.566C59.18 104.124 59.3943 104.937 59.3943 106.007Z" fill="#32B768"/>
<path d="M66.6303 99.73V103.531H76.7739V99.73H66.6303ZM69.4519 94.1507V115.771H73.9165V94.1507H69.4519Z" fill="#32B768"/>
<path d="M85.1653 102.066L92.4158 113.504L99.6663 102.066L101.274 115.771H106.595L102.881 90.1407L92.4158 105.902L81.9508 90.1407L78.2363 115.771H83.5581L85.1653 102.066Z" fill="#52665A"/>
<path d="M113.46 110.784C113.46 110.319 113.568 109.936 113.782 109.633C113.996 109.308 114.33 109.064 114.782 108.901C115.234 108.715 115.818 108.622 116.532 108.622C117.413 108.622 118.247 108.738 119.032 108.971C119.842 109.203 120.568 109.552 121.211 110.017V107.925C120.973 107.646 120.58 107.355 120.032 107.053C119.485 106.751 118.806 106.495 117.996 106.286C117.211 106.077 116.294 105.972 115.246 105.972C113.199 105.972 111.615 106.425 110.496 107.332C109.377 108.239 108.817 109.471 108.817 111.028C108.817 112.121 109.079 113.051 109.603 113.818C110.151 114.562 110.865 115.131 111.746 115.526C112.627 115.922 113.58 116.119 114.603 116.119C115.603 116.119 116.556 115.945 117.461 115.596C118.389 115.248 119.139 114.724 119.711 114.027C120.306 113.33 120.604 112.469 120.604 111.447L120.032 109.354C120.032 110.122 119.854 110.784 119.497 111.342C119.139 111.877 118.675 112.295 118.104 112.597C117.532 112.876 116.889 113.016 116.175 113.016C115.675 113.016 115.211 112.934 114.782 112.772C114.377 112.586 114.056 112.33 113.818 112.005C113.58 111.656 113.46 111.249 113.46 110.784ZM111.675 104.263C111.913 104.101 112.282 103.903 112.782 103.67C113.282 103.438 113.877 103.24 114.568 103.078C115.258 102.915 115.984 102.834 116.746 102.834C117.246 102.834 117.699 102.88 118.104 102.973C118.508 103.066 118.854 103.217 119.139 103.426C119.449 103.636 119.675 103.903 119.818 104.228C119.961 104.531 120.032 104.903 120.032 105.344V115.771H124.497V104.403C124.497 103.31 124.187 102.392 123.568 101.648C122.949 100.881 122.092 100.3 120.997 99.9044C119.901 99.5092 118.651 99.3116 117.246 99.3116C115.723 99.3116 114.341 99.5209 113.103 99.9393C111.865 100.335 110.817 100.753 109.96 101.195L111.675 104.263Z" fill="#52665A"/>
<path d="M139.408 106.007V115.771H144.194V105.519C144.194 103.589 143.718 102.09 142.765 101.02C141.813 99.9277 140.361 99.3814 138.408 99.3814C137.241 99.3814 136.241 99.6255 135.408 100.114C134.598 100.579 133.943 101.264 133.443 102.171V99.7301H128.8V115.771H133.443V106.007C133.443 105.333 133.574 104.751 133.836 104.263C134.098 103.775 134.479 103.403 134.979 103.147C135.479 102.868 136.051 102.729 136.694 102.729C137.646 102.729 138.337 103.008 138.765 103.566C139.194 104.124 139.408 104.937 139.408 106.007Z" fill="#52665A"/>
<path d="M152.037 110.784C152.037 110.319 152.144 109.936 152.359 109.633C152.573 109.308 152.906 109.064 153.359 108.901C153.811 108.715 154.395 108.622 155.109 108.622C155.99 108.622 156.823 108.738 157.609 108.971C158.419 109.203 159.145 109.552 159.788 110.017V107.925C159.55 107.646 159.157 107.355 158.609 107.053C158.062 106.751 157.383 106.495 156.573 106.286C155.788 106.077 154.871 105.972 153.823 105.972C151.775 105.972 150.192 106.425 149.073 107.332C147.954 108.239 147.394 109.471 147.394 111.028C147.394 112.121 147.656 113.051 148.18 113.818C148.728 114.562 149.442 115.131 150.323 115.526C151.204 115.922 152.156 116.119 153.18 116.119C154.18 116.119 155.133 115.945 156.038 115.596C156.966 115.248 157.716 114.724 158.288 114.027C158.883 113.33 159.181 112.469 159.181 111.447L158.609 109.354C158.609 110.122 158.431 110.784 158.073 111.342C157.716 111.877 157.252 112.295 156.68 112.597C156.109 112.876 155.466 113.016 154.752 113.016C154.252 113.016 153.787 112.934 153.359 112.772C152.954 112.586 152.633 112.33 152.394 112.005C152.156 111.656 152.037 111.249 152.037 110.784ZM150.251 104.263C150.49 104.101 150.859 103.903 151.359 103.67C151.859 103.438 152.454 103.24 153.145 103.078C153.835 102.915 154.561 102.834 155.323 102.834C155.823 102.834 156.276 102.88 156.68 102.973C157.085 103.066 157.43 103.217 157.716 103.426C158.026 103.636 158.252 103.903 158.395 104.228C158.538 104.531 158.609 104.903 158.609 105.344V115.771H163.074V104.403C163.074 103.31 162.764 102.392 162.145 101.648C161.526 100.881 160.669 100.3 159.574 99.9044C158.478 99.5092 157.228 99.3116 155.823 99.3116C154.299 99.3116 152.918 99.5209 151.68 99.9393C150.442 100.335 149.394 100.753 148.537 101.195L150.251 104.263Z" fill="#52665A"/>
<path d="M166.591 116.886C166.687 118.281 167.068 119.513 167.734 120.583C168.425 121.675 169.413 122.512 170.699 123.093C171.984 123.698 173.58 124 175.485 124C177.056 124 178.509 123.698 179.842 123.093C181.176 122.512 182.235 121.582 183.021 120.304C183.831 119.025 184.235 117.398 184.235 115.422V99.7301H179.771V115.422C179.771 116.514 179.556 117.421 179.128 118.142C178.723 118.862 178.175 119.397 177.485 119.746C176.818 120.095 176.104 120.269 175.342 120.269C174.508 120.269 173.782 120.129 173.163 119.85C172.544 119.571 172.056 119.176 171.699 118.665C171.342 118.177 171.151 117.584 171.127 116.886H166.591ZM166.27 107.611C166.27 109.378 166.639 110.877 167.377 112.109C168.115 113.318 169.091 114.236 170.306 114.864C171.52 115.492 172.806 115.805 174.163 115.805C175.544 115.805 176.759 115.492 177.806 114.864C178.878 114.213 179.711 113.272 180.306 112.039C180.926 110.807 181.235 109.331 181.235 107.611C181.235 105.867 180.926 104.391 180.306 103.182C179.711 101.95 178.878 101.009 177.806 100.358C176.759 99.7068 175.544 99.3814 174.163 99.3814C172.806 99.3814 171.52 99.6952 170.306 100.323C169.091 100.951 168.115 101.88 167.377 103.113C166.639 104.321 166.27 105.821 166.27 107.611ZM171.056 107.611C171.056 106.634 171.258 105.821 171.663 105.17C172.068 104.496 172.615 103.984 173.306 103.636C173.997 103.287 174.735 103.113 175.52 103.113C176.044 103.113 176.556 103.217 177.056 103.426C177.556 103.612 178.009 103.891 178.413 104.263C178.842 104.635 179.175 105.1 179.414 105.658C179.652 106.216 179.771 106.867 179.771 107.611C179.771 108.587 179.556 109.412 179.128 110.087C178.723 110.738 178.187 111.237 177.521 111.586C176.878 111.912 176.211 112.074 175.52 112.074C174.735 112.074 173.997 111.9 173.306 111.551C172.615 111.203 172.068 110.703 171.663 110.052C171.258 109.378 171.056 108.564 171.056 107.611Z" fill="#52665A"/>
<path d="M196.474 116.119C198.45 116.119 200.141 115.747 201.546 115.003C202.974 114.236 204.117 113.097 204.974 111.586L200.938 110.366C200.462 111.133 199.855 111.714 199.117 112.109C198.403 112.481 197.533 112.667 196.51 112.667C195.605 112.667 194.831 112.469 194.188 112.074C193.545 111.679 193.057 111.11 192.724 110.366C192.414 109.622 192.259 108.715 192.259 107.646C192.283 106.53 192.45 105.6 192.759 104.856C193.093 104.089 193.557 103.519 194.152 103.147C194.771 102.752 195.533 102.555 196.438 102.555C197.176 102.555 197.819 102.717 198.367 103.043C198.914 103.368 199.331 103.81 199.617 104.368C199.926 104.926 200.081 105.6 200.081 106.39C200.081 106.553 200.034 106.762 199.938 107.018C199.867 107.251 199.784 107.436 199.688 107.576L200.938 105.972H190.259V108.762H204.974C204.998 108.622 205.01 108.436 205.01 108.204C205.034 107.971 205.046 107.75 205.046 107.541C205.046 105.821 204.713 104.356 204.046 103.147C203.379 101.915 202.403 100.985 201.117 100.358C199.855 99.7068 198.319 99.3814 196.51 99.3814C194.7 99.3814 193.128 99.7301 191.795 100.427C190.462 101.102 189.426 102.066 188.688 103.322C187.973 104.554 187.616 106.03 187.616 107.75C187.616 109.447 187.973 110.924 188.688 112.179C189.426 113.411 190.462 114.376 191.795 115.073C193.128 115.771 194.688 116.119 196.474 116.119Z" fill="#52665A"/>
<path d="M213.071 99.7301H208.535V115.771H213.071V99.7301ZM217.893 104.438L220 100.602C219.667 100.183 219.226 99.8696 218.678 99.6603C218.155 99.4511 217.595 99.3465 217 99.3465C216.143 99.3465 215.309 99.6487 214.5 100.253C213.69 100.834 213.035 101.625 212.535 102.624C212.035 103.601 211.785 104.728 211.785 106.007L213.071 107.262C213.071 106.495 213.166 105.844 213.357 105.309C213.571 104.751 213.881 104.321 214.285 104.019C214.69 103.717 215.178 103.566 215.75 103.566C216.226 103.566 216.619 103.647 216.928 103.81C217.262 103.949 217.583 104.159 217.893 104.438Z" fill="#52665A"/>
<g clip-path="url(#clip0)">
<path d="M135.244 0.105133C123.126 0.105133 113.266 9.92922 113.266 22.0044V24.2576H115.528C127.646 24.2576 137.506 14.4335 137.506 2.35831V0.105133H135.244Z" fill="#00C063"/>
<path d="M95.455 7.25967H93.1939V9.51285C93.1939 21.5883 103.053 31.4123 115.172 31.4123H117.433V29.1591C117.433 17.0839 107.574 7.25967 95.455 7.25967Z" fill="#00C063"/>
<path d="M133.786 46.6167C130.214 42.6466 124.234 36.0019 116.738 35.3812C105.231 34.4285 97.6902 41.0429 97.3746 41.3248L98.7659 42.8701H98.766L100.157 44.4152C100.17 44.4038 100.443 44.1639 100.951 43.7955L108.888 47.1567L116.38 50.5387L117.651 56.6571L131.924 50.7463C132.145 50.9812 132.352 51.1937 132.544 51.3796L135.444 48.3983C135.032 48.0006 134.455 47.3591 133.786 46.6167Z" fill="#2B7A4B"/>
<path d="M143.905 51.0826C143.188 49.3638 141.843 48.026 140.116 47.3158C138.389 46.6056 136.489 46.6078 134.763 47.3222L119.429 53.6723C119.444 52.7458 119.273 51.8158 118.913 50.9261C118.184 49.12 116.784 47.7273 114.971 47.0042L100.835 41.3662C97.7056 40.1169 94.2657 40.1393 91.1493 41.4294L84.1331 44.335L84.9327 46.252L84.9439 47.0028L84.9327 47.0104L85.0517 58.6545L84.2713 60.5794L107.204 69.8094C108.77 70.4382 110.413 70.7525 112.056 70.7525C113.745 70.7525 115.433 70.4202 117.037 69.7559L140.131 60.192C141.856 59.4776 143.199 58.1368 143.911 56.4163C144.624 54.6956 144.622 52.8016 143.905 51.0826Z" fill="#F9D5A5"/>
<path d="M84.9909 52.7008L85.0516 52.5507L84.987 46.2294L84.9327 46.252L84.9439 47.0029L84.9327 47.0104L84.9909 52.7008Z" fill="#F9BE77"/>
<path d="M87.0163 38.7486H73.3334V66.6047H87.0163V38.7486Z" fill="#32B768"/>
<path d="M87.1552 35.8231H82.9886V68.1589H87.1552V35.8231Z" fill="white"/>
<path d="M129.181 10.77L126.169 7.90112L113.267 21.382V24.1615L104.531 15.0562L101.519 17.9252L113.267 30.1694V37.3609H117.433V23.014L129.181 10.77Z" fill="#73E6A1"/>
</g>
<defs>
<clipPath id="clip0">
<rect width="71.1111" height="70.8571" fill="white" transform="translate(73.3334)"/>
</clipPath>
</defs>
</svg>
